<svg width="30" height="30" viewBox="0 0 2966 3364" fill="none" xmlns="http://www.w3.org/2000/svg">
<path fill-rule="evenodd" clip-rule="evenodd" d="M1545.4 301.74C1912.69 267.6 2220.16 365.25 2516.5 577C2625.52 654.9 2745.94 864.48 2891.03 790.53C2970.64 749.95 2983.72 658.69 2943.39 584.54C2907.44 518.43 2842.93 470.99 2786.52 423.43C2244.01 -33.9996 1527.51 -139.07 891.3 198.09C-378.7 871.13 -267 2729.11 1069.93 3250.62C1564.43 3443.52 2133.87 3387.04 2580.19 3100.72C2670.23 3042.96 2859.16 2898.16 2921.33 2815.72C3050.8 2644.01 2869.31 2474.45 2704.03 2612.89C2645.63 2661.81 2606.44 2722.08 2543.34 2770.18C2189.91 3039.63 1756.24 3141.53 1322.38 3026.3C666.49 2852.11 236.32 2237.87 294.36 1561.11C351.55 894.31 879.19 363.67 1545.39 301.75L1545.4 301.74Z" fill="black"/>
<path fill-rule="evenodd" clip-rule="evenodd" d="M1222.64 1559.91C1542.5 1557.5 1863.23 1560.79 2183.23 1559.52C2341.48 1558.89 2500.46 1559.32 2658.76 1559.47C2784.05 1559.59 2965.28 1550.79 2966 1679.74C2966.72 1809.88 2791.71 1802.66 2664.35 1802.5C2504.05 1802.31 2343.51 1802.21 2183.23 1802.52C1862.85 1803.13 1541.86 1800.84 1221.6 1802.78C1304.6 1868.84 1493.37 1977.86 1551.64 2040.66C1660.33 2157.79 1445.78 2308.57 1266.24 2182.03C1154.53 2103.3 1042.15 2025.14 930.604 1946.35C850.33 1889.65 628.141 1763.39 624.136 1686.97C620.523 1618.05 689.413 1586.36 751.218 1542.3C806.496 1502.9 862.769 1463.17 918.959 1424.47C1032.76 1346.09 1143.97 1265.55 1257.34 1186.8C1452.21 1051.45 1648.22 1206.47 1557.02 1314.72C1501.84 1380.21 1304.21 1489.51 1222.63 1559.9L1222.64 1559.91Z" fill="black"/>
</svg>
